# Blender v2.72 (sub 0) OBJ File: ''
# www.blender.org
o Cone
v 0.070813 0.034730 0.175883
v 0.002212 -0.025327 -0.336428
v 0.100140 0.105070 0.157719
v 0.069511 0.174757 0.139190
v -0.003133 0.202968 0.131148
v -0.075237 0.173179 0.138305
v -0.104565 0.102839 0.156469
v -0.073936 0.033153 0.174998
v -0.001292 0.004941 0.183040
v 0.020039 0.108813 0.265446
v 0.029344 0.131131 0.259683
v 0.019626 0.153241 0.253804
v -0.003422 0.162192 0.251253
v -0.026300 0.152740 0.253524
v -0.035605 0.130423 0.259286
v -0.025887 0.108313 0.265166
v -0.002838 0.099362 0.267717
v 0.019525 0.123839 0.322806
v 0.028830 0.146157 0.317044
v 0.019112 0.168267 0.311164
v -0.003936 0.177218 0.308613
v -0.026814 0.167766 0.310884
v -0.036119 0.145449 0.316647
v -0.026401 0.123339 0.322526
v -0.003352 0.114388 0.325077
vt 0.000000 0.000000
vt 1.000000 0.000000
vt 1.000000 1.000000
vt 0.000000 1.000000
vt 0.500000 1.000000
vt 0.853553 0.853553
vt 1.000000 0.500000
vt 0.000000 0.500000
vt 0.146447 0.853553
vt 0.500000 0.000000
vt 0.146447 0.146447
vt 0.853553 0.146447
vn -0.366500 -0.929000 0.051700
vn 0.913300 -0.400300 -0.075400
vn -0.903400 -0.420100 -0.086500
vn -0.910100 0.307900 -0.277200
vn -0.382800 0.828400 -0.408900
vn 0.369700 0.836600 -0.404300
vn 0.386000 -0.920800 0.056300
vn 0.906500 0.327700 -0.266100
vn 0.329300 -0.627400 0.705600
vn 0.391000 -0.889500 0.236500
vn -0.324100 -0.634500 0.701600
vn -0.790200 -0.192700 0.581700
vn -0.796100 0.439400 0.416100
vn -0.338300 0.891300 0.301800
vn 0.315100 0.898500 0.305800
vn 0.781200 0.456600 0.425700
vn 0.787100 -0.175500 0.591300
vn -0.008700 0.253400 0.967300
vn -0.374300 -0.897800 0.231800
vn -0.920400 -0.380200 0.091400
vn -0.927200 0.360100 -0.102600
vn -0.391000 0.889500 -0.236500
vn 0.374300 0.897800 -0.231800
vn 0.920400 0.380200 -0.091400
vn 0.927200 -0.360100 0.102600
s off
f 8/1/1 2/2/1 9/3/1
f 1/1/2 2/2/2 3/3/2
f 7/1/3 2/2/3 8/3/3
f 6/1/4 2/2/4 7/3/4
f 5/1/5 2/2/5 6/3/5
f 4/1/6 2/2/6 5/3/6
f 9/1/7 2/2/7 1/3/7
f 3/1/8 2/2/8 4/3/8
f 1/2/9 10/3/9 17/4/9
f 17/1/10 10/2/10 18/3/10
f 9/2/11 17/3/11 16/4/11
f 7/1/12 8/2/12 16/3/12
f 7/2/13 15/3/13 14/4/13
f 5/1/14 6/2/14 14/3/14
f 5/2/15 13/3/15 12/4/15
f 4/2/16 12/3/16 11/4/16
f 3/2/17 11/3/17 10/4/17
f 18/5/18 19/6/18 20/7/18
f 16/1/19 17/2/19 25/3/19
f 16/2/20 24/3/20 23/4/20
f 15/2/21 23/3/21 22/4/21
f 13/1/22 14/2/22 22/3/22
f 12/1/23 13/2/23 21/3/23
f 12/2/24 20/3/24 19/4/24
f 10/1/25 11/2/25 19/3/25
f 9/1/9 1/2/9 17/4/9
f 25/4/10 17/1/10 18/3/10
f 8/1/11 9/2/11 16/4/11
f 15/4/12 7/1/12 16/3/12
f 6/1/13 7/2/13 14/4/13
f 13/4/14 5/1/14 14/3/14
f 4/1/15 5/2/15 12/4/15
f 3/1/16 4/2/16 11/4/16
f 1/1/17 3/2/17 10/4/17
f 24/8/18 25/9/18 18/5/18
f 22/10/18 23/11/18 24/8/18
f 22/10/18 18/5/18 21/12/18
f 24/4/19 16/1/19 25/3/19
f 22/10/18 24/8/18 18/5/18
f 15/1/20 16/2/20 23/4/20
f 18/5/18 20/7/18 21/12/18
f 14/1/21 15/2/21 22/4/21
f 21/4/22 13/1/22 22/3/22
f 20/4/23 12/1/23 21/3/23
f 11/1/24 12/2/24 19/4/24
f 18/4/25 10/1/25 19/3/25
