# Blender v2.72 (sub 0) OBJ File: 'Tree.blend'
# www.blender.org
o Cylinder.005_Cylinder.010
v 0.321992 0.009142 -0.458443
v 0.259125 3.164362 -0.423225
v 0.361030 0.009142 -0.129003
v 0.296592 3.113947 -0.147935
v 0.155686 0.009142 0.131551
v 0.120467 3.164362 0.068685
v -0.173754 0.009142 0.170590
v -0.168668 3.097936 0.111266
v -0.434308 0.009142 -0.034754
v -0.372378 3.188317 -0.060358
v -0.473347 0.009142 -0.364195
v -0.399158 3.180121 -0.335742
v -0.268003 0.009142 -0.624749
v -0.244527 3.080354 -0.571113
v 0.061437 0.009142 -0.663788
v 0.041888 3.164362 -0.594431
v 0.292364 5.824234 0.208377
v 0.299577 5.818398 0.270210
v 0.260815 5.815981 0.319211
v 0.198784 5.818398 0.326676
v 0.149820 5.824234 0.288231
v 0.142607 5.830070 0.226398
v 0.181369 5.832487 0.177397
v 0.243400 5.830070 0.169932
v -0.053373 4.435865 0.078894
v -0.184744 4.469086 -0.022845
v -0.202896 4.502307 -0.188010
v -0.097195 4.516068 -0.319851
v 0.085316 4.559641 -0.320407
v 0.201811 4.469086 -0.239398
v 0.219963 4.435865 -0.074233
v 0.114262 4.422104 0.057608
v 0.259125 0.564461 -0.423225
v 0.291674 0.564461 -0.148553
v 0.120467 0.564461 0.068685
v -0.154204 0.564461 0.101234
v -0.371442 0.564461 -0.069973
v -0.403991 0.564461 -0.344645
v -0.232784 0.564461 -0.561882
v 0.041888 0.564461 -0.594431
v -0.317223 3.703713 -0.040053
v -0.336283 3.692036 -0.328470
v -0.195902 3.801015 -0.484964
v 0.022202 3.692036 -0.529297
v 0.234276 3.685993 -0.332622
v 0.121505 3.662197 0.060568
v -0.143478 3.686887 0.095967
v 0.251172 3.754873 -0.114466
v -1.192389 4.289126 -2.139850
v -1.166107 4.281224 -2.182507
v -1.114250 4.289126 -2.183624
v -1.157913 4.396495 -2.096268
v -1.130308 4.418251 -2.118331
v -1.095089 4.396495 -2.131462
v -0.687975 3.369651 -1.348440
v -0.500813 3.421455 -1.362364
v -0.484363 3.857807 -1.266284
v -0.625079 3.929878 -1.235154
v -0.717739 3.857807 -1.135545
v -0.791083 3.421455 -1.199751
v 0.259125 2.631700 -0.423225
v 0.291674 2.631700 -0.148553
v 0.120467 2.631700 0.068685
v -0.154204 2.631700 0.101234
v -0.381365 2.547344 -0.064595
v -0.403991 2.631700 -0.344645
v -0.242121 2.564903 -0.569222
v 0.041888 2.631700 -0.594431
v -1.580213 3.718568 0.728160
v -1.628949 3.749498 0.672663
v -1.651188 3.712894 0.601286
v -1.625978 3.577573 0.760068
v -1.696047 3.564604 0.716378
v -1.696954 3.571898 0.633194
v -0.986764 2.868697 0.095652
v -0.968719 3.246931 0.083071
v -0.972702 2.814726 0.298080
v -0.789436 3.249168 0.403170
v -0.807480 2.870934 0.415751
v -0.932042 3.316108 0.277334
v 1.594938 3.947336 0.213018
v 1.602516 3.942201 0.262087
v 1.569750 3.946758 0.299780
v 1.567203 4.061624 0.223675
v 1.547544 4.056973 0.293231
v 1.567286 4.075974 0.261602
v 0.821888 3.750359 -0.103691
v 0.850413 3.302598 -0.164654
v 0.832229 3.797978 0.044198
v 0.755995 3.302373 0.169299
v 0.745419 3.734026 0.163322
v 0.876227 3.269836 0.022437
v -0.242199 4.068478 -0.037256
v -0.285745 3.999031 -0.275252
v -0.158504 4.071934 -0.422406
v 0.040478 3.999031 -0.458007
v 0.221976 3.982691 -0.297301
v 0.118761 3.950110 0.059447
v -0.084932 4.044161 0.085839
v 0.239348 4.012887 -0.099222
v 0.574935 4.812210 -1.338136
v 0.625782 4.829172 -1.320674
v 0.657008 4.799826 -1.293818
v 0.583087 4.688628 -1.399409
v 0.646059 4.674507 -1.397654
v 0.687032 4.662698 -1.338405
v 0.092919 4.195804 -0.779359
v 0.247066 4.142278 -0.802646
v 0.270438 4.569070 -0.685030
v 0.131330 4.534270 -0.690413
v 0.382240 4.127432 -0.675385
v 0.358825 4.498693 -0.621872
v 0.212521 1.596689 -0.397233
v 0.240277 1.596689 -0.163009
v 0.094281 1.596689 0.022239
v -0.139944 1.596689 0.049996
v -0.329423 1.560722 -0.093707
v -0.352948 1.596689 -0.330225
v -0.210933 1.568209 -0.518602
v 0.027272 1.596689 -0.543229
v -0.577715 4.068037 0.457517
v -0.512949 4.059992 0.508846
v -0.528843 4.197165 0.436049
v -0.470744 4.186561 0.483060
v -0.397880 4.057513 0.201250
v -0.287359 4.039660 0.288481
v -0.338202 3.791135 0.305990
v -0.460577 3.803822 0.209892
v 0.486337 3.174729 -1.208185
v 0.398998 3.166790 -1.215279
v 0.504978 3.013683 -1.257453
v 0.417639 3.005743 -1.264546
v 0.158930 3.066183 -0.746052
v 0.162941 2.707968 -0.756654
v 0.309683 3.067892 -0.640528
v 0.313695 2.709677 -0.651130
vt 1.000000 0.000000
vt 1.000000 1.000000
vt 0.000000 1.000000
vt 0.000000 0.000000
vt 1.000000 0.500000
vt 0.853553 0.146447
vt 0.853553 0.853553
vt 0.146447 0.853553
vt 0.500000 1.000000
vt 0.500000 0.000000
vt 0.146447 0.146447
vt 0.000000 0.500000
vn 0.990600 -0.009900 -0.136600
vn 0.774900 -0.008700 0.632000
vn 0.149400 -0.016600 0.988600
vn -0.747500 -0.652900 -0.122200
vn -0.596000 0.011800 -0.802900
vn -0.836900 -0.005900 -0.547300
vn -0.616500 -0.028600 0.786800
vn -0.890500 0.003500 -0.454900
vn -0.080000 -0.004000 -0.996800
vn 0.000000 -1.000000 -0.000000
vn 0.049400 0.994900 0.088100
vn -0.967600 0.205000 0.147600
vn -0.743900 0.367700 -0.558000
vn -0.096800 0.369600 -0.924100
vn 0.658700 0.198200 -0.725800
vn 0.773900 -0.194700 0.602600
vn 0.107800 -0.194300 0.975000
vn 0.992600 -0.027200 -0.118400
vn -0.601200 0.062600 0.796700
vn -0.980800 0.135600 0.139900
vn -0.770900 0.229900 -0.594000
vn -0.244100 0.937700 0.247200
vn -0.141800 -0.717300 -0.682200
vn 0.796000 0.000700 0.605300
vn 0.126400 0.005100 0.992000
vn 0.993700 0.052900 -0.098600
vn 0.986000 0.119000 -0.116800
vn 0.779800 0.119000 0.614600
vn 0.116800 0.119000 0.986000
vn -0.614600 0.119000 0.779800
vn -0.986000 0.119000 0.116800
vn -0.779800 0.119000 -0.614600
vn 0.614600 0.119000 -0.779800
vn -0.116800 0.119000 -0.986000
vn -0.613000 0.046700 0.788700
vn -0.990400 0.102300 0.093300
vn 0.846100 0.103100 -0.523000
vn 0.119100 -0.635500 -0.762900
vn 0.677200 0.115000 -0.726700
vn -0.266600 0.922700 -0.278500
vn 0.142100 0.015800 0.989700
vn 0.345200 0.148200 -0.926800
vn -0.746200 0.441800 -0.498000
vn -0.086400 0.441000 -0.893300
vn 0.554100 0.823500 0.121600
vn -0.096100 0.846800 0.523200
vn -0.693200 -0.652400 -0.306300
vn -0.887700 0.082500 0.453000
vn 0.827400 0.090900 -0.554300
vn 0.218000 -0.867400 -0.447200
vn 0.436300 0.894400 -0.098700
vn -0.317000 0.887700 0.333800
vn -0.479900 -0.876900 -0.027300
vn -0.890900 0.103100 0.442300
vn 0.991900 -0.047600 -0.117500
vn 0.784500 -0.047600 0.618300
vn 0.117500 -0.047500 0.991900
vn -0.575500 -0.054400 0.816000
vn -0.996500 -0.054400 0.064100
vn -0.817700 -0.054700 -0.573100
vn 0.618300 -0.047500 -0.784500
vn -0.075900 -0.052900 -0.995700
vn -0.594700 0.356100 0.720700
vn -0.935700 0.331200 0.121700
vn 0.386300 0.012200 0.922300
vn 0.488000 0.868000 -0.091300
vn -0.297100 -0.673800 0.676500
vn 0.200500 0.845000 -0.495800
vn -0.507100 -0.835700 -0.210800
vn -0.602200 0.002200 -0.798300
vn 0.424300 -0.006300 0.905500
vn 0.300200 0.943500 0.140500
vn -0.069800 -0.858500 0.508100
vn -0.119600 0.942200 -0.312900
vn 0.751300 0.200100 0.628900
vn 0.965400 0.243100 -0.094100
vn -0.176000 0.023000 0.984100
vn 0.469400 -0.699200 0.539200
vn 0.694600 -0.696500 -0.180200
vn -0.397100 0.874800 0.277600
vn 0.011700 0.953300 -0.301900
vn 0.340500 0.176600 -0.923500
vn -0.158400 0.009800 0.987300
vn 0.150300 -0.928900 0.338400
vn 0.307000 -0.929400 -0.205100
vn -0.166100 0.914200 0.369700
vn 0.382100 0.872100 -0.305600
vn -0.978000 0.200700 0.056500
vn -0.789600 0.228700 -0.569400
vn -0.079700 0.234700 -0.968800
vn 0.663800 0.131500 -0.736300
vn 0.803100 0.001600 0.595800
vn 0.130800 0.005100 0.991400
vn 0.994100 0.052500 -0.095200
vn 0.153500 0.447100 -0.881200
vn 0.802300 0.346900 -0.485700
vn -0.846200 0.223200 -0.483800
vn 0.891900 0.049100 0.449600
vn 0.360100 -0.802300 -0.476100
vn 0.322000 0.802400 0.502500
vn -0.231500 0.968400 -0.092500
vn -0.349400 -0.781300 -0.517200
vn -0.833200 0.231000 -0.502500
vn 0.920500 0.001700 0.390800
vn 0.171100 -0.941900 -0.289000
vn 0.479800 0.837400 0.261800
vn 0.991900 0.047700 -0.117500
vn 0.784500 0.047700 0.618300
vn 0.117500 0.047600 0.991900
vn -0.609000 0.044600 0.791900
vn -0.993400 0.044400 0.105600
vn -0.794600 0.043400 -0.605600
vn 0.618300 0.047700 -0.784500
vn -0.108100 0.045200 -0.993100
vn -0.557700 0.340200 0.757100
vn 0.689700 -0.090500 0.718400
vn -0.481600 -0.705400 0.520100
vn -0.785800 0.200100 -0.585200
vn 0.077900 0.992300 0.096500
vn 0.705300 -0.095700 0.702400
vn -0.264100 -0.938800 0.221200
vn -0.819100 0.183900 -0.543400
vn 0.050400 0.297500 -0.953400
vn -0.115400 0.982100 0.148900
vn 0.117300 -0.881300 -0.457900
vn 0.951200 0.015900 0.308100
vn -0.788600 0.009400 -0.614800
vn 0.233700 0.907700 -0.348600
vn 0.218300 -0.935700 -0.277000
vn 0.972500 0.000000 0.232900
vn 0.993100 0.000000 -0.117700
vn 0.785400 0.000000 0.619000
vn 0.117700 0.000000 0.993100
vn -0.722400 -0.689400 -0.052600
vn -0.603700 0.002300 -0.797200
vn -0.808800 0.016700 -0.587900
vn -0.619300 -0.027200 0.784700
vn -0.900200 0.028700 -0.434600
vn -0.088400 0.000000 -0.996100
vn -0.968500 0.210600 0.132900
vn 0.049400 0.994900 0.088200
vn -0.737500 0.369600 -0.565200
vn -0.090800 0.368400 -0.925200
vn 0.619200 0.208700 -0.757000
vn 0.775100 -0.194300 0.601200
vn 0.109700 -0.194700 0.974700
vn 0.993000 -0.028600 -0.114900
vn -0.609600 0.059000 0.790500
vn -0.981100 0.138000 0.135600
vn -0.790000 0.239400 -0.564500
vn -0.358700 0.921400 0.149700
vn -0.317300 -0.591100 -0.741500
vn 0.779700 0.009900 0.626100
vn 0.131700 0.007000 0.991300
vn 0.994200 0.051200 -0.095000
vn -0.634100 0.037400 0.772400
vn -0.990800 0.120800 0.060600
vn 0.838500 0.086800 -0.537900
vn 0.083300 -0.653300 -0.752500
vn 0.610600 0.163700 -0.774800
vn -0.229200 0.910600 -0.344000
vn 0.134200 0.020000 0.990800
vn 0.327800 0.166300 -0.930000
vn -0.727000 0.437700 -0.529000
vn -0.058600 0.444700 -0.893800
vn 0.481100 0.854200 0.197100
vn -0.202000 0.811900 0.547800
vn -0.721200 -0.633900 -0.279300
vn -0.881000 0.094700 0.463500
vn 0.830300 0.098700 -0.548500
vn 0.209000 -0.873300 -0.440100
vn 0.430100 0.898100 -0.091800
vn -0.326400 0.883600 0.335700
vn -0.544100 -0.839000 -0.001800
vn -0.897800 0.087400 0.431700
vn -0.597800 -0.047900 0.800200
vn -0.994600 -0.047800 0.091700
vn -0.801100 -0.047800 -0.596700
vn -0.097100 -0.047800 -0.994100
vn -0.539500 0.374100 0.754300
vn -0.936100 0.349400 0.040800
vn 0.432700 0.063100 0.899300
vn 0.517200 0.855600 0.022700
vn -0.275900 -0.657300 0.701300
vn 0.329300 0.868200 -0.371300
vn -0.490900 -0.849700 -0.192400
vn -0.590900 0.018300 -0.806500
vn 0.436500 0.009100 0.899700
vn 0.302800 0.940000 0.156900
vn -0.064800 -0.850800 0.521500
vn 0.194700 0.979700 -0.048100
vn 0.776500 0.192100 0.600100
vn 0.959900 0.252400 -0.121800
vn -0.163600 0.009600 0.986500
vn 0.483800 -0.713500 0.506800
vn 0.700700 -0.680000 -0.215800
vn -0.396500 0.897500 0.192900
vn 0.015600 0.951400 -0.307400
vn 0.366900 0.148400 -0.918300
vn -0.164300 0.016400 0.986300
vn 0.150300 -0.932100 0.329500
vn 0.311400 -0.926300 -0.212000
vn -0.166900 0.917100 0.362000
vn 0.393000 0.873000 -0.288700
vn -0.980700 0.137300 0.139400
vn -0.799500 0.237700 -0.551600
vn -0.089000 0.230300 -0.969000
vn 0.677300 0.114600 -0.726800
vn 0.794200 0.009900 0.607500
vn 0.133000 0.006300 0.991100
vn 0.994300 0.051100 -0.093100
vn 0.126700 0.455200 -0.881300
vn 0.776600 0.342100 -0.529100
vn -0.839100 0.196200 -0.507400
vn 0.914200 -0.000800 0.405300
vn 0.417800 -0.791200 -0.446600
vn 0.293700 0.815900 0.498100
vn -0.237900 0.966200 -0.099200
vn -0.373200 -0.755900 -0.537900
vn -0.831500 0.227500 -0.506700
vn 0.925200 -0.006800 0.379300
vn 0.168800 -0.942300 -0.289200
vn 0.472400 0.841700 0.261600
vn -0.618300 0.047500 0.784500
vn -0.991900 0.047400 0.117500
vn -0.784500 0.047400 -0.618300
vn -0.117500 0.047500 -0.991900
vn -0.554500 0.336400 0.761200
vn 0.695300 -0.086500 0.713500
vn -0.494400 -0.700900 0.514000
vn -0.809200 0.180900 -0.559000
vn 0.079800 0.991600 0.101800
vn 0.706000 -0.095000 0.701800
vn -0.270200 -0.937200 0.220400
vn -0.828200 0.174400 -0.532600
vn -0.102100 0.982100 0.158300
vn 0.265000 -0.892900 -0.364100
vn 0.954700 0.001900 0.297500
vn -0.801500 0.000000 -0.598100
vn 0.282400 0.889900 -0.358300
vn 0.202000 -0.940400 -0.273400
vn 0.974400 0.004300 0.224800
s off
f 2/1/1 4/2/1 62/3/1
f 62/4/2 4/1/2 6/2/2
f 6/1/3 8/2/3 64/3/3
f 75/4/4 77/1/4 73/2/4
f 75/1/5 74/2/5 71/3/5
f 12/1/6 14/2/6 67/3/6
f 26/4/7 25/1/7 20/2/7
f 134/4/8 133/1/8 130/2/8
f 67/4/9 14/1/9 16/2/9
f 5/5/10 7/6/10 3/7/10
f 19/8/11 18/9/11 17/7/11
f 27/4/12 26/1/12 21/2/12
f 28/4/13 27/1/13 22/2/13
f 28/1/14 23/2/14 24/3/14
f 30/4/15 29/1/15 24/2/15
f 31/1/16 18/2/16 19/3/16
f 25/4/17 32/1/17 19/2/17
f 30/1/18 17/2/18 18/3/18
f 99/1/19 25/2/19 26/3/19
f 94/4/20 93/1/20 26/2/20
f 94/1/21 27/2/21 28/3/21
f 110/4/22 109/1/22 102/2/22
f 107/1/23 104/2/23 105/3/23
f 98/4/24 100/1/24 31/2/24
f 98/1/25 32/2/25 25/3/25
f 97/1/26 30/2/26 31/3/26
f 1/4/27 33/1/27 34/2/27
f 34/1/28 35/2/28 5/3/28
f 35/1/29 36/2/29 7/3/29
f 36/1/30 37/2/30 9/3/30
f 37/1/31 38/2/31 11/3/31
f 38/1/32 39/2/32 13/3/32
f 15/4/33 40/1/33 33/2/33
f 39/1/34 40/2/34 15/3/34
f 8/1/35 47/2/35 41/3/35
f 12/4/36 10/1/36 41/2/36
f 56/1/37 51/2/37 54/3/37
f 56/4/38 55/1/38 50/2/38
f 16/1/39 44/2/39 45/3/39
f 87/4/40 89/1/40 86/2/40
f 8/4/41 6/1/41 46/2/41
f 88/4/42 87/1/42 84/2/42
f 49/1/43 52/2/43 53/3/43
f 51/4/44 50/1/44 53/2/44
f 57/1/45 54/2/45 53/3/45
f 59/4/46 58/1/46 53/2/46
f 60/1/47 49/2/47 50/3/47
f 60/4/48 59/1/48 52/2/48
f 16/1/49 56/2/49 57/3/49
f 16/4/50 14/1/50 55/2/50
f 44/1/51 57/2/51 58/3/51
f 42/4/52 43/1/52 58/2/52
f 12/1/53 60/2/53 55/3/53
f 12/4/54 42/1/54 59/2/54
f 113/4/55 61/1/55 62/2/55
f 62/1/56 63/2/56 115/3/56
f 63/1/57 64/2/57 116/3/57
f 64/1/58 65/2/58 117/3/58
f 117/4/59 65/1/59 66/2/59
f 66/1/60 67/2/60 119/3/60
f 120/4/61 68/1/61 61/2/61
f 119/4/62 67/1/62 68/2/62
f 72/4/63 69/1/63 70/2/63
f 70/1/64 71/2/64 74/3/64
f 79/4/65 78/1/65 69/2/65
f 78/4/66 80/1/66 70/2/66
f 79/1/67 72/2/67 73/3/67
f 76/1/68 71/2/68 70/3/68
f 66/4/69 65/1/69 77/2/69
f 66/1/70 75/2/70 76/3/70
f 64/4/71 8/1/71 78/2/71
f 8/4/72 10/1/72 80/2/72
f 64/1/73 79/2/73 77/3/73
f 12/1/74 76/2/74 80/3/74
f 83/4/75 82/1/75 86/2/75
f 81/1/76 84/2/76 86/3/76
f 90/1/77 83/2/77 85/3/77
f 90/4/78 92/1/78 82/2/78
f 88/1/79 81/2/79 82/3/79
f 91/1/80 85/2/80 86/3/80
f 45/4/81 48/1/81 89/2/81
f 2/4/82 45/1/82 87/2/82
f 6/1/83 90/2/83 91/3/83
f 6/4/84 4/1/84 92/2/84
f 2/1/85 88/2/85 92/3/85
f 46/1/86 91/2/86 89/3/86
f 126/4/87 125/1/87 123/2/87
f 42/4/88 41/1/88 93/2/88
f 42/1/89 94/2/89 95/3/89
f 44/4/90 43/1/90 95/2/90
f 44/1/91 96/2/91 97/3/91
f 46/4/92 48/1/92 100/2/92
f 46/1/93 98/2/93 99/3/93
f 45/1/94 97/2/94 100/3/94
f 104/1/95 101/2/95 102/3/95
f 106/4/96 105/1/96 102/2/96
f 107/4/97 110/1/97 101/2/97
f 111/1/98 106/2/98 103/3/98
f 111/4/99 108/1/99 105/2/99
f 112/1/100 103/2/100 102/3/100
f 28/4/101 29/1/101 109/2/101
f 95/1/102 107/2/102 108/3/102
f 95/4/103 28/1/103 110/2/103
f 97/1/104 111/2/104 112/3/104
f 97/4/105 96/1/105 108/2/105
f 30/1/106 112/2/106 109/3/106
f 113/1/107 114/2/107 34/3/107
f 34/4/108 114/1/108 115/2/108
f 35/4/109 115/1/109 116/2/109
f 116/1/110 117/2/110 37/3/110
f 37/4/111 117/1/111 118/2/111
f 118/1/112 119/2/112 39/3/112
f 120/1/113 113/2/113 33/3/113
f 39/4/114 119/1/114 120/2/114
f 121/4/115 122/1/115 124/2/115
f 127/4/116 126/1/116 124/2/116
f 128/4/117 127/1/117 122/2/117
f 128/1/118 121/2/118 123/3/118
f 99/4/119 93/1/119 125/2/119
f 47/4/120 99/1/120 126/2/120
f 41/4/121 47/1/121 127/2/121
f 41/1/122 128/2/122 125/3/122
f 132/4/123 130/1/123 129/2/123
f 133/4/124 135/1/124 129/2/124
f 134/1/125 132/2/125 131/3/125
f 136/1/126 131/2/126 129/3/126
f 16/1/127 133/2/127 134/3/127
f 2/1/128 135/2/128 133/3/128
f 61/4/129 68/1/129 134/2/129
f 2/4/130 61/1/130 136/2/130
f 61/4/131 2/1/131 62/3/131
f 63/3/132 62/4/132 6/2/132
f 63/4/133 6/1/133 64/3/133
f 74/3/134 75/4/134 73/2/134
f 76/4/135 75/1/135 71/3/135
f 66/4/136 12/1/136 67/3/136
f 21/3/137 26/4/137 20/2/137
f 132/3/138 134/4/138 130/2/138
f 68/3/139 67/4/139 16/2/139
f 1/9/10 9/10/10 15/8/10
f 9/10/10 11/11/10 13/12/10
f 9/10/10 1/9/10 7/6/10
f 19/8/11 17/7/11 23/6/11
f 20/12/11 19/8/11 21/11/11
f 7/6/10 1/9/10 3/7/10
f 9/10/10 13/12/10 15/8/10
f 22/10/11 21/11/11 23/6/11
f 21/11/11 19/8/11 23/6/11
f 22/3/140 27/4/140 21/2/140
f 17/7/141 24/5/141 23/6/141
f 23/3/142 28/4/142 22/2/142
f 29/4/143 28/1/143 24/3/143
f 17/3/144 30/4/144 24/2/144
f 32/4/145 31/1/145 19/3/145
f 20/3/146 25/4/146 19/2/146
f 31/4/147 30/1/147 18/3/147
f 93/4/148 99/1/148 26/3/148
f 27/3/149 94/4/149 26/2/149
f 95/4/150 94/1/150 28/3/150
f 101/3/151 110/4/151 102/2/151
f 108/4/152 107/1/152 105/3/152
f 32/3/153 98/4/153 31/2/153
f 99/4/154 98/1/154 25/3/154
f 100/4/155 97/1/155 31/3/155
f 3/3/27 1/4/27 34/2/27
f 3/4/28 34/1/28 5/3/28
f 5/4/29 35/1/29 7/3/29
f 7/4/30 36/1/30 9/3/30
f 9/4/31 37/1/31 11/3/31
f 11/4/32 38/1/32 13/3/32
f 1/3/33 15/4/33 33/2/33
f 13/4/34 39/1/34 15/3/34
f 10/4/156 8/1/156 41/3/156
f 42/3/157 12/4/157 41/2/157
f 57/4/158 56/1/158 54/3/158
f 51/3/159 56/4/159 50/2/159
f 2/4/160 16/1/160 45/3/160
f 84/3/161 87/4/161 86/2/161
f 47/3/162 8/4/162 46/2/162
f 81/3/163 88/4/163 84/2/163
f 50/4/164 49/1/164 53/3/164
f 54/3/165 51/4/165 53/2/165
f 58/4/166 57/1/166 53/3/166
f 52/3/167 59/4/167 53/2/167
f 55/4/168 60/1/168 50/3/168
f 49/3/169 60/4/169 52/2/169
f 44/4/170 16/1/170 57/3/170
f 56/3/171 16/4/171 55/2/171
f 43/4/172 44/1/172 58/3/172
f 59/3/173 42/4/173 58/2/173
f 14/4/174 12/1/174 55/3/174
f 60/3/175 12/4/175 59/2/175
f 114/3/55 113/4/55 62/2/55
f 114/4/56 62/1/56 115/3/56
f 115/4/57 63/1/57 116/3/57
f 116/4/176 64/1/176 117/3/176
f 118/3/177 117/4/177 66/2/177
f 118/4/178 66/1/178 119/3/178
f 113/3/61 120/4/61 61/2/61
f 120/3/179 119/4/179 68/2/179
f 73/3/180 72/4/180 70/2/180
f 73/4/181 70/1/181 74/3/181
f 72/3/182 79/4/182 69/2/182
f 69/3/183 78/4/183 70/2/183
f 77/4/184 79/1/184 73/3/184
f 80/4/185 76/1/185 70/3/185
f 75/3/186 66/4/186 77/2/186
f 12/4/187 66/1/187 76/3/187
f 79/3/188 64/4/188 78/2/188
f 78/3/189 8/4/189 80/2/189
f 65/4/190 64/1/190 77/3/190
f 10/4/191 12/1/191 80/3/191
f 85/3/192 83/4/192 86/2/192
f 82/4/193 81/1/193 86/3/193
f 91/4/194 90/1/194 85/3/194
f 83/3/195 90/4/195 82/2/195
f 92/4/196 88/1/196 82/3/196
f 89/4/197 91/1/197 86/3/197
f 87/3/198 45/4/198 89/2/198
f 88/3/199 2/4/199 87/2/199
f 46/4/200 6/1/200 91/3/200
f 90/3/201 6/4/201 92/2/201
f 4/4/202 2/1/202 92/3/202
f 48/4/203 46/1/203 89/3/203
f 124/3/204 126/4/204 123/2/204
f 94/3/205 42/4/205 93/2/205
f 43/4/206 42/1/206 95/3/206
f 96/3/207 44/4/207 95/2/207
f 45/4/208 44/1/208 97/3/208
f 98/3/209 46/4/209 100/2/209
f 47/4/210 46/1/210 99/3/210
f 48/4/211 45/1/211 100/3/211
f 105/4/212 104/1/212 102/3/212
f 103/3/213 106/4/213 102/2/213
f 104/3/214 107/4/214 101/2/214
f 112/4/215 111/1/215 103/3/215
f 106/3/216 111/4/216 105/2/216
f 109/4/217 112/1/217 102/3/217
f 110/3/218 28/4/218 109/2/218
f 96/4/219 95/1/219 108/3/219
f 107/3/220 95/4/220 110/2/220
f 30/4/221 97/1/221 112/3/221
f 111/3/222 97/4/222 108/2/222
f 29/4/223 30/1/223 109/3/223
f 33/4/107 113/1/107 34/3/107
f 35/3/108 34/4/108 115/2/108
f 36/3/109 35/4/109 116/2/109
f 36/4/224 116/1/224 37/3/224
f 38/3/225 37/4/225 118/2/225
f 38/4/226 118/1/226 39/3/226
f 40/4/113 120/1/113 33/3/113
f 40/3/227 39/4/227 120/2/227
f 123/3/228 121/4/228 124/2/228
f 122/3/229 127/4/229 124/2/229
f 121/3/230 128/4/230 122/2/230
f 125/4/231 128/1/231 123/3/231
f 126/3/232 99/4/232 125/2/232
f 127/3/233 47/4/233 126/2/233
f 128/3/234 41/4/234 127/2/234
f 93/4/235 41/1/235 125/3/235
f 131/3/123 132/4/123 129/2/123
f 130/3/236 133/4/236 129/2/236
f 136/4/237 134/1/237 131/3/237
f 135/4/238 136/1/238 129/3/238
f 68/4/239 16/1/239 134/3/239
f 16/4/240 2/1/240 133/3/240
f 136/3/241 61/4/241 134/2/241
f 135/3/242 2/4/242 136/2/242
